<svg width="130" height="130" viewBox="0 0 130 130" fill="none" xmlns="http://www.w3.org/2000/svg">
<g clip-path="url(#clip0_87_310)">
<path d="M130 0H0V130H130V0Z" fill="#394A50"/>
<path d="M113.1 5.4165H16.9003C10.5583 5.4165 5.41699 10.5578 5.41699 16.8998V113.1C5.41699 119.442 10.5583 124.583 16.9003 124.583H113.1C119.442 124.583 124.584 119.442 124.584 113.1V16.8998C124.584 10.5578 119.442 5.4165 113.1 5.4165Z" fill="#819796"/>
<path d="M45.3726 35.6416C45.3726 35.165 45.5351 34.775 45.8601 34.4716C46.2068 34.1683 46.6401 34.0166 47.1601 34.0166H56.4876C57.9609 34.0166 59.2609 34.32 60.3876 34.9266C61.5359 35.5116 62.4243 36.3566 63.0526 37.4616C63.6809 38.545 63.9951 39.8016 63.9951 41.2316C63.9951 42.6833 63.6809 43.9616 63.0526 45.0666C62.4459 46.1716 61.5684 47.0275 60.4201 47.6341C59.2934 48.2191 57.9826 48.5116 56.4876 48.5116H48.8826V54.2966C48.8826 55.185 48.5793 55.8675 47.9726 56.3441C47.3659 56.8208 46.4993 57.0591 45.3726 57.0591V35.6416ZM56.4876 45.4566C57.7443 45.4566 58.7301 45.0883 59.4451 44.3516C60.1601 43.5933 60.5176 42.5533 60.5176 41.2316C60.5176 39.9533 60.1493 38.9458 59.4126 38.2091C58.6976 37.4508 57.7226 37.0716 56.4876 37.0716H48.8826V45.4566H56.4876ZM75.834 57.0591C73.9707 57.0591 72.3132 56.7125 70.8615 56.0191C69.4098 55.3041 68.2832 54.3183 67.4815 53.0616C66.6798 51.805 66.279 50.375 66.279 48.7716V41.9466C66.279 40.3433 66.6798 38.9241 67.4815 37.6891C68.2832 36.4325 69.399 35.4575 70.829 34.7641C72.259 34.0708 73.8948 33.7241 75.7365 33.7241C77.5782 33.7241 79.214 34.0166 80.644 34.6016C82.0957 35.165 83.2223 35.9558 84.024 36.9741C84.8257 37.9925 85.2265 39.1625 85.2265 40.4841C85.2265 41.1775 84.999 41.73 84.544 42.1416C84.089 42.5316 83.4823 42.7266 82.724 42.7266C82.4423 42.7266 82.1173 42.6941 81.749 42.6291C81.7923 42.2825 81.814 41.8383 81.814 41.2966C81.814 40.4083 81.554 39.6283 81.034 38.9566C80.514 38.2633 79.7882 37.7325 78.8565 37.3641C77.9465 36.9741 76.9065 36.7791 75.7365 36.7791C74.5882 36.7791 73.559 36.9958 72.649 37.4291C71.739 37.8625 71.024 38.48 70.504 39.2816C70.0057 40.0616 69.7565 40.95 69.7565 41.9466V48.7716C69.7565 49.79 70.0165 50.7 70.5365 51.5016C71.0565 52.2816 71.7715 52.8991 72.6815 53.3541C73.6132 53.7875 74.664 54.0041 75.834 54.0041C77.654 54.0041 79.1273 53.5925 80.254 52.7691C81.4023 51.9241 81.9765 50.83 81.9765 49.4866C81.9765 49.075 81.9548 48.6308 81.9115 48.1541C82.2148 48.0891 82.5073 48.0566 82.789 48.0566C83.569 48.0566 84.1973 48.2733 84.674 48.7066C85.1507 49.14 85.389 49.725 85.389 50.4616C85.389 51.74 84.9882 52.8883 84.1865 53.9066C83.3848 54.9033 82.2582 55.6833 80.8065 56.2466C79.3548 56.7883 77.6973 57.0591 75.834 57.0591ZM21.4736 78.8666C21.4736 77.9783 21.7661 77.2741 22.3511 76.7541C22.9361 76.2341 23.727 75.9741 24.7236 75.9741L36.8136 94.4666L37.0736 94.2716L36.0011 92.4841V75.9741C37.1278 75.9741 37.9836 76.2125 38.5686 76.6891C39.1536 77.1441 39.4461 77.8266 39.4461 78.7366V96.7091C39.4461 97.4458 39.1645 98.0633 38.6011 98.5616C38.0595 99.06 37.3878 99.3091 36.5861 99.3091L24.1061 80.1991L23.8461 80.4266L24.9186 82.2141V96.5466C24.9186 98.3883 23.7703 99.3091 21.4736 99.3091V78.8666ZM43.7223 77.8916C43.7223 77.4366 43.8956 77.0575 44.2423 76.7541C44.5889 76.4291 45.0114 76.2666 45.5098 76.2666H59.9398C59.9398 77.3066 59.7339 78.0758 59.3223 78.5741C58.9323 79.0508 58.3148 79.2891 57.4698 79.2891H47.2323V86.0166H56.1698C56.1698 87.0566 55.9748 87.8258 55.5848 88.3241C55.1948 88.8008 54.5773 89.0391 53.7323 89.0391H47.2323V95.9941H58.1523C58.9756 95.9941 59.5823 96.2433 59.9723 96.7416C60.3839 97.2183 60.5898 97.9766 60.5898 99.0166H45.5098C45.0114 99.0166 44.5889 98.865 44.2423 98.5616C43.8956 98.2366 43.7223 97.8466 43.7223 97.3916V77.8916ZM71.1055 99.3091C70.2171 99.3091 69.4913 99.1033 68.928 98.6916C68.3646 98.28 67.9855 97.6841 67.7905 96.9041L62.5255 76.3316C62.9371 76.0933 63.4355 75.9741 64.0205 75.9741C64.7138 75.9741 65.288 76.1366 65.743 76.4616C66.198 76.7866 66.5013 77.2525 66.653 77.8591L69.903 92.2566L69.3505 94.3691L69.578 94.4341L74.5505 77.1441C74.6371 76.7758 74.8213 76.4941 75.103 76.2991C75.3846 76.0825 75.7205 75.9741 76.1105 75.9741C76.4788 75.9741 76.8038 76.0825 77.0855 76.2991C77.3888 76.4941 77.5946 76.7758 77.703 77.1441L81.8955 92.4191L81.3755 94.6291L81.6355 94.6941L85.6005 77.8591C85.7305 77.2741 86.023 76.8191 86.478 76.4941C86.933 76.1474 87.4963 75.9741 88.168 75.9741C88.7746 75.9741 89.2946 76.0933 89.728 76.3316L84.4305 96.9041C84.2355 97.6841 83.8455 98.28 83.2605 98.6916C82.6971 99.1033 81.9713 99.3091 81.083 99.3091L75.753 80.1666L75.5255 80.2641L75.9805 81.9216L71.1055 99.3091ZM100.191 99.3091C98.3281 99.3091 96.7031 99.06 95.3164 98.5616C93.9514 98.0416 92.9114 97.3483 92.1964 96.4816C91.4814 95.6149 91.1239 94.6508 91.1239 93.5891C91.1239 92.7875 91.3623 92.1591 91.8389 91.7041C92.3156 91.2275 93.0631 90.9891 94.0814 90.9891C94.1031 92.7658 94.6556 94.12 95.7389 95.0516C96.8223 95.9833 98.3389 96.4491 100.289 96.4491C102.066 96.4491 103.431 96.1458 104.384 95.5391C105.359 94.9325 105.846 94.055 105.846 92.9066C105.846 92.1916 105.662 91.6066 105.294 91.1516C104.947 90.6966 104.33 90.2958 103.441 89.9491C102.575 89.5808 101.34 89.2233 99.7364 88.8766C97.6998 88.4216 96.0856 87.9016 94.8939 87.3166C93.7023 86.7316 92.8356 86.0275 92.2939 85.2041C91.7523 84.3591 91.4814 83.3191 91.4814 82.0841C91.4814 80.8708 91.8281 79.8091 92.5214 78.8991C93.2364 77.9675 94.2331 77.2525 95.5114 76.7541C96.7898 76.2341 98.2739 75.9741 99.9639 75.9741C101.567 75.9741 102.997 76.2016 104.254 76.6566C105.532 77.09 106.529 77.7075 107.244 78.5091C107.981 79.3108 108.349 80.2316 108.349 81.2716C108.349 81.9216 108.121 82.4416 107.666 82.8316C107.211 83.2216 106.496 83.4275 105.521 83.4491C105.326 81.8458 104.785 80.6758 103.896 79.9391C103.008 79.2025 101.697 78.8341 99.9639 78.8341C98.3606 78.8341 97.1256 79.1158 96.2589 79.6791C95.3923 80.2208 94.9589 81.0008 94.9589 82.0191C94.9589 82.7341 95.1214 83.3191 95.4464 83.7741C95.7714 84.2291 96.3131 84.63 97.0714 84.9766C97.8514 85.3016 98.9564 85.6158 100.386 85.9191C102.596 86.3958 104.341 86.9375 105.619 87.5441C106.897 88.1508 107.818 88.8766 108.381 89.7216C108.966 90.5666 109.259 91.6175 109.259 92.8741C109.259 94.8675 108.436 96.4383 106.789 97.5866C105.164 98.7349 102.965 99.3091 100.191 99.3091Z" fill="#202E37"/>
<path d="M2.16699 127.833V117L13.0003 127.833H2.16699Z" fill="#E8C170"/>
<path d="M113.75 21.6668C116.741 21.6668 119.166 19.2417 119.166 16.2502C119.166 13.2586 116.741 10.8335 113.75 10.8335C110.758 10.8335 108.333 13.2586 108.333 16.2502C108.333 19.2417 110.758 21.6668 113.75 21.6668Z" fill="#394A50"/>
</g>
<defs>
<clipPath id="clip0_87_310">
<rect width="130" height="130" fill="white"/>
</clipPath>
</defs>
</svg>
